# xmcd
#
# Track frame offsets: 
#        150
#        5740
#        21081
#        37823
#        48935
#        51736
#        70678
#        76930
#        99050
#        119324
#        145175
#        149576
#        167200
#        188207
#        205624
#        221343
#        240473
#        259145
#        264063
#        278078
#        295056
#        311882
#
# Disc length: 4367 seconds
#
# Revision: 0
# Processed by: cddbd v1.5.2PL0 Copyright (c) Steve Scherf et al.
# Submitted via: ExactAudioCopy v1.0b1
#
DISCID=37110d16
DTITLE=Various Artist - Cold.Killed.Collected [CD1)
DYEAR=2011
DGENRE=Hip-Hop
TTITLE0=Tonedeff - The Consended Version (Interlude)
TTITLE1=Tonedeff - Bang
TTITLE2=Tonedeff and PackFM - That's What Happens
TTITLE3=The Plague - Alive
TTITLE4=Tonedeff - The Hardest Thing I Can Think Of (Interlude)
TTITLE5=Tonedeff - The Distance
TTITLE6=Tonedeff - Deadly Thoughts (Interlude)
TTITLE7=Kno - I Wish I Was Dead (feat. Tonedeff)
TTITLE8=Tonedeff and Kno - No Hope (feat. Deacon the Villain)
TTITLE9=Tonedeff - Optimist
TTITLE10=Tonedeff - Respect Is Everything (Interlude)
TTITLE11=Chords - Days Chasing Days (feat. Tonedeff)
TTITLE12=Substantial and Burns - The W.W.K.Y.A. Tour (feat. Extended Fam
TTITLE12=m)
TTITLE13=QN5 All-Stars - FourPlusOne (feat. DJ JS-1)
TTITLE14=DJ JS-1 - Basix (feat. Tonedeff and PackFM)
TTITLE15=QN5 All-Stars - Commercial Rap
TTITLE16=Tonedeff - Politics (Live In Stockholm, 2006)
TTITLE17=Tonedeff - European Girls (Interlude)
TTITLE18=Tonedeff - Easy Now
TTITLE19=PackFM - Ugly Woman (feat. Extended Famm)
TTITLE20=Tonedeff - Close
TTITLE21=Tonedeff - Warden
EXTD=
EXTT0=
EXTT1=
EXTT2=
EXTT3=
EXTT4=
EXTT5=
EXTT6=
EXTT7=
EXTT8=
EXTT9=
EXTT10=
EXTT11=
EXTT12=
EXTT13=
EXTT14=
EXTT15=
EXTT16=
EXTT17=
EXTT18=
EXTT19=
EXTT20=
EXTT21=
PLAYORDER=
